<svg id="Icons_Final" data-name="Icons Final" xmlns="http://www.w3.org/2000/svg" width="48" height="48" viewBox="0 0 48 48"><title>Product-Name_Resource-Name_light-bg </title><path d="M40,17V11h0a1,1,0,0,0-.28-.71l-8-8A1,1,0,0,0,31,2H7A1,1,0,0,0,6,3V45a1,1,0,0,0,1,1H39a1,1,0,0,0,1-1V41H38v3H8V4H30v7a1,1,0,0,0,1,1h7v5Zm-8-7V5.41L36.59,10Z" style="fill:#3f8624"/><g id="_64px_Live" data-name="64px Live"><path d="M32.59,41H28.41a1,1,0,0,1-1-1.06l0-.93a9.54,9.54,0,0,1-1.55-.64l-.62.7a1.05,1.05,0,0,1-.72.33,1,1,0,0,1-.74-.29l-2.95-3a1,1,0,0,1-.29-.74,1.05,1.05,0,0,1,.33-.72l.7-.62A9.54,9.54,0,0,1,21,32.53l-.93.06a1,1,0,0,1-.75-.28,1,1,0,0,1-.31-.72V27.41a1,1,0,0,1,.31-.72,1,1,0,0,1,.75-.28l.93.06a11,11,0,0,1,.64-1.55l-.7-.62a1.05,1.05,0,0,1-.33-.72,1,1,0,0,1,.29-.74l2.95-2.95a1,1,0,0,1,.74-.29,1.05,1.05,0,0,1,.72.33l.62.7A11,11,0,0,1,27.47,20l0-.93a1,1,0,0,1,1-1.06h4.18a1,1,0,0,1,1,1.06l0,.94a9.92,9.92,0,0,1,1.55.64l.62-.71a1.05,1.05,0,0,1,.72-.33,1,1,0,0,1,.74.29l3,2.95a1,1,0,0,1,.29.74,1.05,1.05,0,0,1-.33.72l-.7.62A10.52,10.52,0,0,1,40,26.47l.93-.06a1,1,0,0,1,.75.28,1,1,0,0,1,.31.72v4.18a1,1,0,0,1-.31.72,1,1,0,0,1-.75.28L40,32.53a9.54,9.54,0,0,1-.64,1.55l.7.62a1.05,1.05,0,0,1,.33.72,1,1,0,0,1-.29.74l-3,3a1,1,0,0,1-.74.29,1.05,1.05,0,0,1-.72-.33l-.62-.7a9.54,9.54,0,0,1-1.55.64l0,.93a1,1,0,0,1-1,1.06Zm-3.12-2h2.06l0-.68a1,1,0,0,1,.78-1,8.1,8.1,0,0,0,2.49-1,1,1,0,0,1,1.28.18l.45.5,1.45-1.45L37.43,35a1,1,0,0,1-.18-1.28,7.72,7.72,0,0,0,1-2.48,1,1,0,0,1,1-.78l.69,0V28.47l-.69,0a1,1,0,0,1-1-.78,8,8,0,0,0-1-2.48A1,1,0,0,1,37.43,24l.52-.46-1.46-1.45-.46.51a1,1,0,0,1-1.28.18,8,8,0,0,0-2.48-1,1,1,0,0,1-.78-1l0-.69H29.47l0,.69a1,1,0,0,1-.78,1,8,8,0,0,0-2.48,1A1,1,0,0,1,25,22.57l-.46-.51-1.45,1.45.51.46a1,1,0,0,1,.18,1.28,8,8,0,0,0-1,2.48,1,1,0,0,1-1,.78l-.69,0v2.06l.68,0a1,1,0,0,1,1,.78,7.86,7.86,0,0,0,1,2.49A1,1,0,0,1,23.57,35l-.51.45,1.45,1.45.45-.51a1,1,0,0,1,1.28-.18,7.89,7.89,0,0,0,2.49,1,1,1,0,0,1,.78,1Z" style="fill:#3f8624"/><path d="M30.5,35A5.5,5.5,0,1,1,36,29.5,5.51,5.51,0,0,1,30.5,35Zm0-9A3.5,3.5,0,1,0,34,29.5,3.5,3.5,0,0,0,30.5,26Z" style="fill:#3f8624"/></g><rect x="10" y="10" width="17" height="2" style="fill:#3f8624"/><rect x="10" y="15" width="11" height="2" style="fill:#3f8624"/></svg>