<svg xmlns="http://www.w3.org/2000/svg" width="48" height="48" viewBox="0 0 48 48"><title>AWS-Transfer-for-SFTP_Icon copy 3</title><g id="Icons_Final" data-name="Icons Final"><path id="AWS-Transfer-for-SFTP_64px_Squid_Icon" d="M9.82,42.41H12v2H7a3,3,0,0,1-3-3v-28a1,1,0,0,1,1-1H16.08a1,1,0,0,1,.79.38l2,2.62H23v2H18.39A1,1,0,0,1,17.6,17l-2-2.61H6v27a1,1,0,0,0,2,0v-21a1,1,0,0,1,1-1H23v2H10v20A3.05,3.05,0,0,1,9.82,42.41ZM43.71,11.7l-8-8a1,1,0,0,0-1.42,0l-8,8A1,1,0,0,0,27,13.41h4v11a1,1,0,0,0,1,1h2.59L29,31l-5.59-5.58H26a1,1,0,0,0,1-1v-7H25v6H21a1,1,0,0,0-.71,1.7l8,8a1,1,0,0,0,1.42,0l8-8a1,1,0,0,0-.71-1.7H33v-11a1,1,0,0,0-1-1H29.41L35,5.82l5.59,5.59H38a1,1,0,0,0-1,1v7H35v2h5v21H37v2h4a1,1,0,0,0,1-1v-23a1,1,0,0,0-1-1H39v-6h4a1,1,0,0,0,.71-1.71Zm-26,28.67a5.29,5.29,0,0,0-1-.67l-.65-.35a2.26,2.26,0,0,1-.71-.53.93.93,0,0,1-.19-.61.9.9,0,0,1,.29-.7,1.19,1.19,0,0,1,.79-.25,5,5,0,0,1,1.72.36V36.35a4.48,4.48,0,0,0-1.89-.43,3,3,0,0,0-1.34.29,2.3,2.3,0,0,0-.91.84,2.36,2.36,0,0,0-.34,1.28,2.3,2.3,0,0,0,.38,1.34,3.59,3.59,0,0,0,1.28,1l.64.34a2.45,2.45,0,0,1,.71.53,1,1,0,0,1,.21.63,1,1,0,0,1-.3.77,1.29,1.29,0,0,1-.88.27,5.33,5.33,0,0,1-.95-.11,6.08,6.08,0,0,1-1-.29v1.27a3.63,3.63,0,0,0,.95.34,4.84,4.84,0,0,0,1.13.13,2.94,2.94,0,0,0,2-.66,2.3,2.3,0,0,0,.74-1.81,2.72,2.72,0,0,0-.17-1A2.17,2.17,0,0,0,17.7,40.37Zm1.95,4.05h1.68V40.91H23.4V39.63H21.33V37.38H24V36.1H19.65Zm5-7h2v7h1.68v-7h2V36.1H24.68Zm11-.63a3.11,3.11,0,0,1,0,3.83,2.26,2.26,0,0,1-1.75.7h-1v3.09H31.29V36.1h2.63A2.26,2.26,0,0,1,35.67,36.8Zm-1,1.91a1.83,1.83,0,0,0-.24-1,.84.84,0,0,0-.72-.34h-.78v2.73h.78a.82.82,0,0,0,.72-.35A1.79,1.79,0,0,0,34.67,38.71Z" style="fill:#1c7b68"/></g></svg>