<svg xmlns="http://www.w3.org/2000/svg" width="48" height="48" viewBox="0 0 48 48"><title>AWS-Transfer-for-SFTP_Icon copy 3</title><g id="Icons_Final" data-name="Icons Final"><path id="AWS-Transfer-for-FTP_64px_Squid_Icon" d="M9.82,42.5H12v2H7a3,3,0,0,1-3-3v-28a1,1,0,0,1,1-1H16.08a1,1,0,0,1,.79.38l2,2.62H23v2H18.39a1,1,0,0,1-.79-.39l-2-2.61H6v27a1,1,0,0,0,2,0v-21a1,1,0,0,1,1-1H23v2H10v20A3.05,3.05,0,0,1,9.82,42.5ZM43.71,11.79l-8-8a1,1,0,0,0-1.42,0l-8,8A1,1,0,0,0,27,13.5h4v11a1,1,0,0,0,1,1h2.59L29,31.08,23.41,25.5H26a1,1,0,0,0,1-1v-7H25v6H21a1,1,0,0,0-.71,1.7l8,8a1,1,0,0,0,1.42,0l8-8A1,1,0,0,0,37,23.5H33v-11a1,1,0,0,0-1-1H29.41L35,5.91l5.59,5.59H38a1,1,0,0,0-1,1v7H35v2h5v21H33v2h8a1,1,0,0,0,1-1v-23a1,1,0,0,0-1-1H39v-6h4a1,1,0,0,0,.71-1.71ZM13.82,44.5H15.5V41h2.07V39.72H15.5V37.47h2.65V36.19H13.82Zm5-7h2v7h1.68v-7h2V36.19H18.84Zm11-.63a3.11,3.11,0,0,1,0,3.83,2.27,2.27,0,0,1-1.76.7h-1V44.5H25.46V36.19h2.62A2.27,2.27,0,0,1,29.84,36.89Zm-1,1.91a1.75,1.75,0,0,0-.25-1,.81.81,0,0,0-.71-.34H27.1v2.73h.78a.79.79,0,0,0,.71-.35A1.71,1.71,0,0,0,28.84,38.8Z" style="fill:#1c7b68"/></g></svg>