<svg xmlns="http://www.w3.org/2000/svg" width="75" height="75" viewBox="0 0 75 75"><title>AWS-Transfer-for-SFTP_Icon copy 3</title><g id="Icons_Final" data-name="Icons Final"><rect id="Turquoise_Light_BG" data-name="Turquoise Light BG" width="75" height="75" style="fill:#1c7b68"/><g id="_64px_Live" data-name="64px Live"><polyline points="49.7 33 57.7 33 57.7 62 40.7 62 23.7 62 17.7 62" style="fill:none;stroke:#fff;stroke-linejoin:round;stroke-width:2px"/><path d="M36.7,28H31l-2.7-3H15.7V60a2,2,0,0,0,2,2h0a2,2,0,0,0,2-2V33h17" style="fill:none;stroke:#fff;stroke-linejoin:round;stroke-width:2px"/><polyline points="46.7 29 46.7 38 51.7 38 43.25 48 34.7 38 39.7 38 39.7 29" style="fill:none;stroke:#fff;stroke-linejoin:round;stroke-width:2px"/><polyline points="46.7 33 46.7 23 41.1 23 50.2 13 59.3 23 53.7 23 53.7 33" style="fill:none;stroke:#fff;stroke-linejoin:round;stroke-width:2px"/></g></g></svg>