<svg xmlns="http://www.w3.org/2000/svg" width="48" height="48" viewBox="0 0 48 48"><title>AWS-Transfer-for-SFTP_Icon copy 3</title><g id="Icons_Final" data-name="Icons Final"><path id="AWS-Transfer-for-FTPS_64px_Squid_Icon" d="M9.82,42.41H12v2H7a3,3,0,0,1-3-3v-28a1,1,0,0,1,1-1H16.08a1,1,0,0,1,.79.38l2,2.62H23v2H18.39A1,1,0,0,1,17.6,17l-2-2.61H6v27a1,1,0,0,0,2,0v-21a1,1,0,0,1,1-1H23v2H10v20A3.05,3.05,0,0,1,9.82,42.41ZM43.71,11.7l-8-8a1,1,0,0,0-1.42,0l-8,8A1,1,0,0,0,27,13.41h4v11a1,1,0,0,0,1,1h2.59L29,31l-5.59-5.58H26a1,1,0,0,0,1-1v-7H25v6H21a1,1,0,0,0-.71,1.7l8,8a1,1,0,0,0,1.42,0l8-8a1,1,0,0,0-.71-1.7H33v-11a1,1,0,0,0-1-1H29.41L35,5.82l5.59,5.59H38a1,1,0,0,0-1,1v7H35v2h5v21H38v2h3a1,1,0,0,0,1-1v-23a1,1,0,0,0-1-1H39v-6h4a1,1,0,0,0,.71-1.71ZM13.82,44.41H15.5v-3.5h2.07V39.63H15.5V37.38h2.65V36.1H13.82Zm5-7h2v7h1.68v-7h2V36.1H18.84Zm11-.63a3.11,3.11,0,0,1,0,3.83,2.27,2.27,0,0,1-1.76.7h-1v3.08H25.46V36.1h2.62A2.27,2.27,0,0,1,29.84,36.8Zm-1,1.91a1.75,1.75,0,0,0-.25-1,.81.81,0,0,0-.71-.34H27.1v2.73h.78a.79.79,0,0,0,.71-.35A1.71,1.71,0,0,0,28.84,38.71Zm6.86,1.66a5.29,5.29,0,0,0-1-.67l-.65-.35a2.26,2.26,0,0,1-.71-.53.93.93,0,0,1-.19-.61.89.89,0,0,1,.29-.7,1.19,1.19,0,0,1,.79-.25,5,5,0,0,1,1.72.36V36.35a4.48,4.48,0,0,0-1.89-.43,3,3,0,0,0-1.34.29,2.3,2.3,0,0,0-.91.84,2.36,2.36,0,0,0-.34,1.28,2.3,2.3,0,0,0,.38,1.34,3.59,3.59,0,0,0,1.28,1l.64.34a2.29,2.29,0,0,1,.71.53,1,1,0,0,1,.21.63,1,1,0,0,1-.3.77,1.29,1.29,0,0,1-.88.27,5.33,5.33,0,0,1-1-.11,6.08,6.08,0,0,1-1-.29v1.26a3.63,3.63,0,0,0,.95.35,4.84,4.84,0,0,0,1.13.13,2.94,2.94,0,0,0,2-.66,2.3,2.3,0,0,0,.74-1.81,2.72,2.72,0,0,0-.17-1A2.17,2.17,0,0,0,35.7,40.37Z" style="fill:#1c7b68"/></g></svg>