<svg xmlns="http://www.w3.org/2000/svg" xmlns:xlink="http://www.w3.org/1999/xlink" viewBox="0 0 75 75"><defs><style>.cls-1{fill:url(#Pink_Gradient);}.cls-2{fill:#fff;}</style><linearGradient id="Pink_Gradient" x1="-20.83" y1="131.69" x2="-20.83" y2="-18.31" gradientTransform="translate(92.31 12.14) rotate(45)" gradientUnits="userSpaceOnUse"><stop offset="0" stop-color="#b0084d"/><stop offset="1" stop-color="#ff4f8b"/></linearGradient></defs><g id="Example"><rect id="Green_Gradient" data-name="Green Gradient" class="cls-1" width="75" height="75"/><path class="cls-2" d="M15.09,61.5,13.5,59.91,30.36,43.05,32,44.64Zm10.09-18L23.64,41.9l-9.55,9,1.54,1.63ZM35.3,50.28l-1.55-1.63L23.08,58.77l1.54,1.63ZM44.53,57a1.12,1.12,0,0,0,.31-.83l-.15-2.52a18.25,18.25,0,0,0,4.16-1.72l1.68,1.88a1.11,1.11,0,0,0,.8.38,1.09,1.09,0,0,0,.83-.33L58,48a1.12,1.12,0,0,0,0-1.63l-1.89-1.68a19,19,0,0,0,1.72-4.15l2.52.14a1.18,1.18,0,0,0,.84-.3,1.16,1.16,0,0,0,.35-.82V31.29a1.14,1.14,0,0,0-.35-.82,1.19,1.19,0,0,0-.84-.31l-2.52.15a19.33,19.33,0,0,0-1.72-4.15L58,24.47a1.1,1.1,0,0,0,.37-.8,1.12,1.12,0,0,0-.33-.83L52.16,17a1.09,1.09,0,0,0-.83-.33,1.1,1.1,0,0,0-.8.37l-1.7,1.9a18.56,18.56,0,0,0-4.14-1.72l.15-2.53a1.14,1.14,0,0,0-.31-.84,1.12,1.12,0,0,0-.81-.35H35.45a1.16,1.16,0,0,0-.82.35,1.13,1.13,0,0,0-.3.84l.14,2.53a19,19,0,0,0-4.14,1.72L28.64,17a1.14,1.14,0,0,0-.81-.37A1.06,1.06,0,0,0,27,17l-5.85,5.84a1.15,1.15,0,0,0-.32.83,1.06,1.06,0,0,0,.37.8l1.89,1.69a19.33,19.33,0,0,0-1.72,4.15l-2.53-.15a1.12,1.12,0,0,0-.83.31,1.1,1.1,0,0,0-.35.82v8.26a1.11,1.11,0,0,0,1.19,1.12l3.37-.2-.13-2.24-2.19.13V32.47l2.27.13a1.12,1.12,0,0,0,1.16-.87,16.73,16.73,0,0,1,2.15-5.19,1.1,1.1,0,0,0-.2-1.43l-1.7-1.52,4.17-4.16,1.51,1.69a1.13,1.13,0,0,0,1.44.21,16.54,16.54,0,0,1,5.19-2.15A1.13,1.13,0,0,0,36.77,18l-.13-2.27h5.89L42.4,18a1.13,1.13,0,0,0,.87,1.16,16.48,16.48,0,0,1,5.18,2.15,1.13,1.13,0,0,0,1.44-.2l1.52-1.7,4.16,4.16L53.88,25.1a1.12,1.12,0,0,0-.2,1.44,16.64,16.64,0,0,1,2.15,5.19A1.12,1.12,0,0,0,57,32.6l2.26-.13v5.89L57,38.23a1.15,1.15,0,0,0-1.16.87,16.59,16.59,0,0,1-2.15,5.2,1.13,1.13,0,0,0,.2,1.44l1.69,1.5-4.16,4.17-1.5-1.69a1.13,1.13,0,0,0-1.44-.2,16.36,16.36,0,0,1-5.2,2.15,1.13,1.13,0,0,0-.87,1.16l.13,2.26H36.68l.09-1-2.24-.2-.2,2.25a1.13,1.13,0,0,0,.29.86,1.15,1.15,0,0,0,.83.36h8.27A1.08,1.08,0,0,0,44.53,57Zm4.63-21.56A9.55,9.55,0,1,0,39.61,45,9.56,9.56,0,0,0,49.16,35.42Zm-2.24,0a7.31,7.31,0,1,1-7.31-7.31A7.31,7.31,0,0,1,46.92,35.42Z"/></g></svg>