<svg xmlns="http://www.w3.org/2000/svg" xmlns:xlink="http://www.w3.org/1999/xlink" width="56" height="56" viewBox="0 0 56 56"><defs><linearGradient id="TurquoiseGradient" x1="-2176.02" y1="498.41" x2="-2255.22" y2="577.61" gradientTransform="translate(-2187.62 566.01) rotate(180)" gradientUnits="userSpaceOnUse"><stop offset="0" stop-color="#055f4e"/><stop offset="1" stop-color="#56c0a7"/></linearGradient></defs><title>Amazon-CodeGuru_Icon</title><g id="Guides_Padding" data-name="Guides &amp; Padding"><rect id="Turquoise_Gradient" data-name="Turquoise Gradient" width="56" height="56" style="fill:url(#TurquoiseGradient)"/><line x1="28" y1="12.79" x2="28" y2="9.32" style="fill:none;stroke:#fff;stroke-miterlimit:10;stroke-width:2px"/><line x1="14.96" y1="25.83" x2="11.49" y2="25.83" style="fill:none;stroke:#fff;stroke-miterlimit:10;stroke-width:2px"/><line x1="44.51" y1="25.83" x2="41.04" y2="25.83" style="fill:none;stroke:#fff;stroke-miterlimit:10;stroke-width:2px"/><path d="M38.43,25.83a10.43,10.43,0,1,0-16.51,8.46v5.44H34.08V34.29A10.42,10.42,0,0,0,38.43,25.83Z" style="fill:none;stroke:#fff;stroke-linejoin:round;stroke-width:2px"/><polygon points="31.04 46.68 24.96 46.68 22.79 43.21 33.21 43.21 31.04 46.68" style="fill:none;stroke:#fff;stroke-linejoin:round;stroke-width:2px"/><polyline points="24.52 22.35 21.92 25.83 24.52 29.3" style="fill:none;stroke:#fff;stroke-linejoin:round;stroke-width:2px"/><polyline points="31.48 22.35 34.08 25.83 31.48 29.3" style="fill:none;stroke:#fff;stroke-linejoin:round;stroke-width:2px"/><line x1="27.13" y1="31.91" x2="28.87" y2="19.74" style="fill:none;stroke:#fff;stroke-linejoin:round;stroke-width:2px"/><line x1="37.56" y1="16.27" x2="40.17" y2="13.66" style="fill:none;stroke:#fff;stroke-miterlimit:10;stroke-width:2px"/><line x1="18.44" y1="16.27" x2="15.83" y2="13.66" style="fill:none;stroke:#fff;stroke-miterlimit:10;stroke-width:2px"/></g></svg>