<svg xmlns="http://www.w3.org/2000/svg" width="48" height="48" viewBox="0 0 48 48"><title>Access-Analyzer_ligh-bkg</title><g id="Icons_Final" data-name="Icons Final"><path id="_48px_Compound" data-name="48px Compound" d="M15,25V23h4v2Zm11,0V23H22v2Zm7,0V23H29v2ZM12,29H3a1,1,0,0,1-1-1V19a1,1,0,0,1,1-1h9a1,1,0,0,1,1,1v9A1,1,0,0,1,12,29Zm-1-9H4v7h7ZM8,16H6V7A1,1,0,0,1,7,6H35.1a5,5,0,1,1,0,2H8ZM37,7a3,3,0,1,0,3-3A3,3,0,0,0,37,7Zm8,34a5,5,0,0,1-9.9,1H7a1,1,0,0,1-1-1V31H8v9H35.1A5,5,0,0,1,45,41Zm-2,0a3,3,0,1,0-3,3A3,3,0,0,0,43,41Zm2.87-12.52A1,1,0,0,1,45,29H35a1,1,0,0,1-.85-1.53l5-8a1,1,0,0,1,1.7,0l5,8A1,1,0,0,1,45.87,28.48ZM43.2,27,40,21.89,36.8,27Z" style="fill:#d6242d"/></g></svg>