<svg xmlns="http://www.w3.org/2000/svg" xmlns:xlink="http://www.w3.org/1999/xlink" width="75" height="75" viewBox="0 0 75 75"><defs><linearGradient id="linear-gradient" x1="-20.83" y1="131.69" x2="-20.83" y2="-18.31" gradientTransform="translate(92.31 12.14) rotate(45)" gradientUnits="userSpaceOnUse"><stop offset="0" stop-color="#c8511b"/><stop offset="1" stop-color="#f90"/></linearGradient></defs><title>Architecture-Service-Icon_Bottlerocket</title><g id="Working"><rect id="Green_Gradient" data-name="Green Gradient" width="75" height="75" style="fill:url(#linear-gradient)"/><rect x="11" y="10" width="54" height="56" style="fill:none"/><rect width="75" height="75" style="fill:none"/><path d="M36,45.6l1,.57a1,1,0,0,0,1,0L43.5,43a1,1,0,0,0,.5-.87V35.77a1,1,0,0,0-.5-.86L38,31.73a1,1,0,0,0-1,0l-5.5,3.18a1,1,0,0,0-.5.86v6.35a1,1,0,0,0,.5.87l4.5,2.6h0Zm2-1.74V39.47l4-1.82v3.9Zm-.5-10.11,3.63,2.1-3.65,1.66-3.76-1.57ZM33,41.55V37.81l3,1.25v4.22Zm0,14v3h2v-4a1,1,0,0,0-1-1c-4.06,0-5-1.69-5-9v-17H27v7.49l0,0L20.13,43a1,1,0,0,0-.13.66V58.53a.92.92,0,0,0,.5.93,1.07,1.07,0,0,0,.39.07,1,1,0,0,0,.7-.28l6.62-6.47C29.07,54.36,30.52,55.35,33,55.56Zm-11.11.6V44L27,38.1v6.5a28.77,28.77,0,0,0,.46,6.12ZM54.76,43l-6.85-7.92,0,0V27.6H46v17c0,7.31-.93,9-5,9a1,1,0,0,0-1,1v4h1.89v-3c2.48-.21,3.94-1.2,4.79-2.78l6.62,6.47a1,1,0,0,0,.7.28,1.07,1.07,0,0,0,.39-.07,1,1,0,0,0,.61-.93V43.65A1.07,1.07,0,0,0,54.76,43ZM53,56.16l-5.57-5.44a28.77,28.77,0,0,0,.46-6.12V38.1L53,44ZM31,61.6h2v3a1,1,0,0,0,1,1h7a1,1,0,0,0,1-1v-3h2v-2H31Zm9,0v2H35v-2ZM25.87,26.53A36.7,36.7,0,0,1,38,24.6a39.69,39.69,0,0,1,12.65,1.93.84.84,0,0,0,.35.07,1,1,0,0,0,.81-.42,1,1,0,0,0,0-1.22L39.68,10.18a2.2,2.2,0,0,0-3.36,0L24.71,25a1,1,0,0,0,1.16,1.55Zm12-15.11a.14.14,0,0,1,.23,0L48.2,23.75A45.27,45.27,0,0,0,38,22.6a41.84,41.84,0,0,0-9.77,1.14Z" style="fill:#fff"/></g></svg>