<svg xmlns="http://www.w3.org/2000/svg" width="75" height="75" viewBox="0 0 75 75"><title>AWS-Savings-Plan_light-bg</title><g id="Example"><rect id="Green_Light_BG" data-name="Green Light BG" width="75" height="75" style="fill:#3f8624"/></g><g id="Working"><path id="_64x" data-name="64x" d="M66.76,43.76,59.18,47.4l-3.09-7.82,1.31-.51,2.07,5.25a23.78,23.78,0,1,0-44.15.83l-1.85.77A25.78,25.78,0,1,1,63,35.89a25.49,25.49,0,0,1-1.58,8.88l4.72-2.27Zm-13.08,5.9c0-6.19-3.17-11.61-9.42-16.12l-.43-.32a1,1,0,0,0-.62-.22H30.79a1,1,0,0,0-.62.22l-.43.32c-6.25,4.51-9.42,9.93-9.42,16.12,0,9,6.55,14.84,16.68,14.84S53.68,58.68,53.68,49.66ZM42.88,35l.21.16c2.13,1.53,8.59,6.2,8.59,14.5,0,7.92-5.63,12.84-14.68,12.84S22.32,57.58,22.32,49.66c0-8.3,6.46-13,8.59-14.5l.21-.16ZM44,28.63l4.79-5.83a1,1,0,0,0-1-1.61l-7.56,1.56-3.69-2.42a1,1,0,0,0-1.31.19c-.7.82-1.48,1.72-1.91,2.21l-8.14-1.55a1,1,0,0,0-1.06.49,1,1,0,0,0,.11,1.15l5,5.83A1,1,0,0,0,30,29H43.21A1,1,0,0,0,44,28.63ZM27.61,23.68l5.89,1.11a.94.94,0,0,0,.68-.11c.17-.09.27-.15,2-2.19l3.3,2.16a1.05,1.05,0,0,0,.75.14l5.19-1.07L42.73,27H30.46ZM43,52.56A5.49,5.49,0,0,1,38,58v2H36V57.81a5.49,5.49,0,0,1-3.88-5.25h2A3.47,3.47,0,0,0,36,55.64v-7a5.38,5.38,0,0,1,0-10.33V37h2v1.14a5.47,5.47,0,0,1,5,5.46H41a3.47,3.47,0,0,0-3-3.44v7C41,47.77,43,49.9,43,52.56ZM36,46.5v-6a3.47,3.47,0,0,0-1.88,3.08A3.26,3.26,0,0,0,36,46.5Zm5,6.06c0-1.88-1.52-2.94-3-3.36V56A3.47,3.47,0,0,0,41,52.56ZM53.28,32.07A3.69,3.69,0,0,0,56,28.46H54a1.69,1.69,0,0,1-1.25,1.68,1.73,1.73,0,0,1-2-.93,2.6,2.6,0,0,0-2.39-1.56c-1.41.06-2.48,1.49-3,2.35H29v2H46a1,1,0,0,0,.9-.56c.4-.82,1.19-1.78,1.6-1.79.08,0,.34.18.59.59a3.81,3.81,0,0,0,3.25,2A3.6,3.6,0,0,0,53.28,32.07Z" style="fill:#fff"/><rect x="6" y="6" width="64" height="64" style="fill:none"/></g></svg>