<svg xmlns="http://www.w3.org/2000/svg" viewBox="0 0 50 50"><defs><style>.cls-1{fill:#3f8624;}</style></defs><g id="Working"><path class="cls-1" d="M45.43,48.88H14.89a1,1,0,0,1-1-1V26.13a1,1,0,0,1,1-1h8.83a1,1,0,0,1,.9.57l1,2H45.43a1,1,0,0,1,1,1V47.88A1,1,0,0,1,45.43,48.88Zm-29.54-2H44.43V29.73H25a1,1,0,0,1-.9-.57l-1-2h-7.2ZM5.57,6.32c4-2.32,8-4.2,14.4-4.2,6.09,0,10.51,2.23,14.41,4.24V25h2V5.75a1,1,0,0,0-.55-.89l-.34-.18C31.55,2.65,26.65.12,20,.12,12.78.12,8.34,2.38,4.06,4.88a1,1,0,0,0-.49.87V48.88h2Z"/></g></svg>