<svg xmlns="http://www.w3.org/2000/svg" viewBox="0 0 50 50"><defs><style>.cls-1{fill:#3f8624;}</style></defs><g id="Working"><path class="cls-1" d="M32.54,49.88c-6.56,0-13.2-1.73-13.2-5V22.72c0-3.3,6.64-5,13.2-5s13.2,1.72,13.2,5V44.86C45.74,48.15,39.1,49.88,32.54,49.88Zm-11.2-6.42v1.4c0,1,3.95,3,11.2,3s11.2-2,11.2-3v-1.4C38.82,46.41,26.26,46.41,21.34,43.46Zm0-14V40.68c0,1,3.95,3,11.2,3s11.2-2,11.2-3V29.44C38.82,32.39,26.26,32.39,21.34,29.44Zm0-3.94v1.16c0,1,3.95,3,11.2,3s11.2-2,11.2-3V25.5C38.82,28.45,26.26,28.45,21.34,25.5Zm11.2-5.8c-7.25,0-11.2,2-11.2,3s3.95,3,11.2,3,11.2-2,11.2-3S39.79,19.7,32.54,19.7ZM6.26,6.32c4-2.32,8-4.2,14.4-4.2,6.09,0,10.51,2.23,14.41,4.24v9.12h2V5.75a1,1,0,0,0-.55-.89l-.34-.18C32.24,2.65,27.34.12,20.66.12,13.47.12,9,2.38,4.75,4.88a1,1,0,0,0-.49.87V48.88h2Z"/></g></svg>