<svg xmlns="http://www.w3.org/2000/svg" viewBox="0 0 50 50"><defs><style>.cls-1{fill:#3f8624;}</style></defs><g id="Working"><path class="cls-1" d="M17.87,2.12C11.43,2.12,7.48,4,3.46,6.32V48.88h-2V5.75A1,1,0,0,1,2,4.88C6.24,2.38,10.67.12,17.87.12c6.68,0,11.58,2.53,15.52,4.56l.34.18a1,1,0,0,1,.54.89V19.62h-2V6.36C28.38,4.35,24,2.12,17.87,2.12Zm7.64,41.13a8,8,0,1,1,8-8A8,8,0,0,1,25.51,43.25Zm0-2a6,6,0,1,0-6-6A6,6,0,0,0,25.51,41.25Zm22.8,3.53-3.88,4.73a1,1,0,0,1-.77.37H25.24l-.09,0a14.62,14.62,0,1,1,15-14.61,14.5,14.5,0,0,1-2.33,7.89h9.73a1,1,0,0,1,.9.58A1,1,0,0,1,48.31,44.78Zm-22.8,3.1A12.63,12.63,0,1,0,12.88,35.25,12.64,12.64,0,0,0,25.51,47.88Zm19.91-2.74H36.25a14.51,14.51,0,0,1-3.39,2.74H43.18Z"/></g></svg>