<svg xmlns="http://www.w3.org/2000/svg" width="48" height="48" viewBox="0 0 48 48"><title>Amazon-CodeGuru_Icon</title><g id="Guides_Padding" data-name="Guides &amp; Padding"><path d="M42,20A18,18,0,0,1,27,37.73v-2a16,16,0,1,0-6,0v2A18,18,0,1,1,42,20ZM25,42.59V30H23V42.59l-3.29-3.3-1.42,1.42,5,5a1,1,0,0,0,1.42,0l5-5-1.42-1.42ZM19,16a1,1,0,0,1,1,1v6a1,1,0,0,1-1,1H13a1,1,0,0,1-1-1V17a1,1,0,0,1,1-1Zm-1,2H14v4h4Zm12.5,2A4.5,4.5,0,1,1,26,24.5,4.51,4.51,0,0,1,30.5,20Zm0,2A2.5,2.5,0,1,0,33,24.5,2.5,2.5,0,0,0,30.5,22Zm2.37-6.5a1,1,0,0,1,0,1A1,1,0,0,1,32,17H24a1,1,0,0,1-.86-.5,1,1,0,0,1,0-1l4-7a1,1,0,0,1,1.74,0ZM30.28,15,28,11l-2.28,4Z" style="fill:#6cae3e"/></g></svg>