<svg xmlns="http://www.w3.org/2000/svg" width="48" height="48" viewBox="0 0 48 48"><title>Amazon-CodeGuru_Icon</title><g id="Guides_Padding" data-name="Guides &amp; Padding"><path d="M20,17H14a1,1,0,0,0-1,1v6a1,1,0,0,0,1,1h6a1,1,0,0,0,1-1V18A1,1,0,0,0,20,17Zm-1,6H15V19h4Zm10.5-2A4.5,4.5,0,1,0,34,25.5,4.51,4.51,0,0,0,29.5,21Zm0,7A2.5,2.5,0,1,1,32,25.5,2.5,2.5,0,0,1,29.5,28ZM28.87,9.5a1,1,0,0,0-1.74,0l-4,7a1,1,0,0,0,0,1A1,1,0,0,0,24,18h8a1,1,0,0,0,.86-.5,1,1,0,0,0,0-1ZM25.72,16,28,12l2.28,4ZM39,8V23c0,8.48-4.33,13.73-12,14.79v-2C35.16,34.56,37,28.33,37,23V8.71L24,4.06,11,8.71V23c0,5.33,1.84,11.56,10,12.77v2C13.33,36.73,9,31.48,9,23V8a1,1,0,0,1,.66-.94l14-5a1,1,0,0,1,.68,0l14,5A1,1,0,0,1,39,8ZM28.29,39.29l1.42,1.42-5,5a1,1,0,0,1-1.42,0l-5-5,1.42-1.42L23,42.59V30h2V42.59Z" style="fill:#6cae3e"/></g></svg>